<svg width="199" height="56" viewBox="0 0 199 56" version="1.1" xmlns="http://www.w3.org/2000/svg" xmlns:xlink="http://www.w3.org/1999/xlink" xmlns:figma="http://www.figma.com/figma/ns">
<title>oblique-logo</title>
<desc>Created using Figma</desc>
<g id="Canvas" transform="translate(103 192)" figma:type="canvas">
<g id="oblique-logo" style="mix-blend-mode:normal;" figma:type="frame">
<g id="li" style="mix-blend-mode:normal;" figma:type="frame">
<g id="Rectangle 3" style="mix-blend-mode:normal;" figma:type="vector">
<use xlink:href="#path0_fill" transform="translate(-38 -192)" fill="#F5A503" style="mix-blend-mode:normal;"/>
</g>
<g id="Vector" style="mix-blend-mode:normal;" figma:type="vector">
<use xlink:href="#path1_fill" transform="translate(-17 -180)" fill="#CCCCCC" style="mix-blend-mode:normal;"/>
</g>
</g>
<g id="ob__que" style="mix-blend-mode:normal;" figma:type="text">
<use xlink:href="#path2_fill" transform="translate(-104 -207)" fill="#CCCCCC" style="mix-blend-mode:normal;"/>
</g>
</g>
</g>
<defs>
<path id="path0_fill" d="M 21 0L 29 0L 8 56L 0 56L 21 0Z"/>
<path id="path1_fill" d="M 0 21.5L 8 0L 8 32.5L 0 32.5L 0 21.5Z"/>
<path id="path2_fill" d="M 33.3691 43.0332C 33.3691 45.377 32.9492 47.5645 32.1094 49.5957C 31.2695 51.6074 30.127 53.3555 28.6816 54.8398C 27.2363 56.3047 25.5371 57.4668 23.584 58.3262C 21.6504 59.166 19.5703 59.5859 17.3438 59.5859C 15.1367 59.5859 13.0566 59.166 11.1035 58.3262C 9.16992 57.4668 7.4707 56.3047 6.00586 54.8398C 4.56055 53.3555 3.41797 51.6074 2.57812 49.5957C 1.73828 47.5645 1.31836 45.377 1.31836 43.0332C 1.31836 40.6504 1.73828 38.4434 2.57812 36.4121C 3.41797 34.3809 4.56055 32.6328 6.00586 31.168C 7.4707 29.6836 9.16992 28.5215 11.1035 27.6816C 13.0566 26.8418 15.1367 26.4219 17.3438 26.4219C 19.5703 26.4219 21.6504 26.8223 23.584 27.623C 25.5371 28.4043 27.2363 29.5273 28.6816 30.9922C 30.127 32.4375 31.2695 34.1855 32.1094 36.2363C 32.9492 38.2676 33.3691 40.5332 33.3691 43.0332ZM 25.3125 43.0332C 25.3125 41.7441 25.0977 40.582 24.668 39.5469C 24.2578 38.4922 23.6914 37.5937 22.9688 36.8516C 22.2461 36.0898 21.3965 35.5137 20.4199 35.123C 19.4629 34.7129 18.4375 34.5078 17.3438 34.5078C 16.25 34.5078 15.2148 34.7129 14.2383 35.123C 13.2813 35.5137 12.4414 36.0898 11.7188 36.8516C 11.0156 37.5937 10.459 38.4922 10.0488 39.5469C 9.63867 40.582 9.43359 41.7441 9.43359 43.0332C 9.43359 44.2441 9.63867 45.3672 10.0488 46.4023C 10.459 47.4375 11.0156 48.3359 11.7188 49.0977C 12.4414 49.8594 13.2813 50.4648 14.2383 50.9141C 15.2148 51.3437 16.25 51.5586 17.3438 51.5586C 18.4375 51.5586 19.4629 51.3535 20.4199 50.9434C 21.3965 50.5332 22.2461 49.957 22.9688 49.2148C 23.6914 48.4727 24.2578 47.5742 24.668 46.5195C 25.0977 45.4648 25.3125 44.3027 25.3125 43.0332ZM 69.1992 43.0332C 69.1992 45.4941 68.7793 47.7402 67.9395 49.7715C 67.0996 51.8027 65.957 53.5508 64.5117 55.0156C 63.0664 56.4609 61.3672 57.584 59.4141 58.3848C 57.4805 59.1855 55.4004 59.5859 53.1738 59.5859C 50.9668 59.5859 48.8867 59.1758 46.9336 58.3555C 45 57.5352 43.3008 56.3926 41.8359 54.9277C 40.3906 53.4629 39.248 51.7246 38.4082 49.7129C 37.5684 47.6816 37.1484 45.4551 37.1484 43.0332L 37.1484 15.1426L 45.1758 15.1426L 45.1758 29.791C 45.6055 29.2441 46.123 28.7559 46.7285 28.3262C 47.3535 27.8965 48.0176 27.5449 48.7207 27.2715C 49.4434 26.998 50.1855 26.793 50.9473 26.6562C 51.709 26.5 52.4512 26.4219 53.1738 26.4219C 55.4004 26.4219 57.4805 26.8418 59.4141 27.6816C 61.3672 28.502 63.0664 29.6543 64.5117 31.1387C 65.957 32.623 67.0996 34.3809 67.9395 36.4121C 68.7793 38.4238 69.1992 40.6309 69.1992 43.0332ZM 61.1426 43.0332C 61.1426 41.8223 60.9277 40.6992 60.498 39.6641C 60.0879 38.6094 59.5215 37.7012 58.7988 36.9395C 58.0762 36.1777 57.2266 35.582 56.25 35.1523C 55.293 34.7227 54.2676 34.5078 53.1738 34.5078C 52.0801 34.5078 51.0449 34.752 50.0684 35.2402C 49.1113 35.709 48.2715 36.3438 47.5488 37.1445C 46.8262 37.9258 46.2598 38.834 45.8496 39.8691C 45.4395 40.8848 45.2344 41.9395 45.2344 43.0332C 45.2344 44.2441 45.4395 45.3672 45.8496 46.4023C 46.2598 47.4375 46.8262 48.3359 47.5488 49.0977C 48.2715 49.8594 49.1113 50.4648 50.0684 50.9141C 51.0449 51.3437 52.0801 51.5586 53.1738 51.5586C 54.2676 51.5586 55.293 51.3437 56.25 50.9141C 57.2266 50.4648 58.0762 49.8594 58.7988 49.0977C 59.5215 48.3359 60.0879 47.4375 60.498 46.4023C 60.9277 45.3672 61.1426 44.2441 61.1426 43.0332ZM 132.25 70.9531L 124.193 70.9531L 124.193 56.8906C 123.588 57.2422 122.963 57.584 122.318 57.916C 121.693 58.248 121.039 58.5508 120.355 58.8242C 119.691 59.0781 119.007 59.2832 118.304 59.4395C 117.621 59.5957 116.927 59.6738 116.224 59.6738C 114.017 59.6738 111.937 59.2734 109.984 58.4727C 108.05 57.6523 106.351 56.5098 104.886 55.0449C 103.441 53.5801 102.298 51.832 101.459 49.8008C 100.619 47.75 100.199 45.4941 100.199 43.0332C 100.199 40.5527 100.619 38.2969 101.459 36.2656C 102.298 34.2148 103.441 32.4668 104.886 31.0215C 106.351 29.5762 108.05 28.4629 109.984 27.6816C 111.937 26.8809 114.017 26.4805 116.224 26.4805C 117.24 26.4805 118.236 26.6074 119.213 26.8613C 120.209 27.1152 121.175 27.4668 122.113 27.916C 123.05 28.3457 123.939 28.8633 124.779 29.4688C 125.638 30.0742 126.449 30.7188 127.211 31.4023L 130.316 27.6816L 132.25 27.6816L 132.25 70.9531ZM 124.193 43.0332C 124.193 41.9395 123.978 40.8848 123.548 39.8691C 123.138 38.834 122.572 37.9258 121.849 37.1445C 121.127 36.3438 120.277 35.709 119.3 35.2402C 118.343 34.752 117.318 34.5078 116.224 34.5078C 115.13 34.5078 114.095 34.7129 113.119 35.123C 112.162 35.5137 111.322 36.0801 110.599 36.8223C 109.896 37.5645 109.339 38.4629 108.929 39.5176C 108.519 40.5527 108.314 41.7246 108.314 43.0332C 108.314 44.3809 108.519 45.5918 108.929 46.666C 109.339 47.7207 109.896 48.6094 110.599 49.332C 111.322 50.0547 112.162 50.6113 113.119 51.002C 114.095 51.373 115.13 51.5586 116.224 51.5586C 117.318 51.5586 118.343 51.3242 119.3 50.8555C 120.277 50.3672 121.127 49.7324 121.849 48.9512C 122.572 48.1504 123.138 47.2422 123.548 46.2266C 123.978 45.1914 124.193 44.127 124.193 43.0332ZM 161.429 55.3379C 160.785 55.9238 160.091 56.4805 159.349 57.0078C 158.627 57.5156 157.865 57.9648 157.064 58.3555C 156.263 58.7266 155.433 59.0195 154.574 59.2344C 153.734 59.4688 152.875 59.5859 151.996 59.5859C 150.062 59.5859 148.246 59.2441 146.546 58.5605C 144.847 57.877 143.353 56.9102 142.064 55.6602C 140.795 54.3906 139.789 52.8574 139.046 51.0605C 138.324 49.2441 137.962 47.2129 137.962 44.9668L 137.962 27.623L 145.931 27.623L 145.931 44.9668C 145.931 46.0215 146.087 46.9688 146.4 47.8086C 146.732 48.6289 147.171 49.3223 147.718 49.8887C 148.265 50.4551 148.9 50.8848 149.623 51.1777C 150.365 51.4707 151.156 51.6172 151.996 51.6172C 152.816 51.6172 153.587 51.4316 154.31 51.0605C 155.052 50.6699 155.697 50.1621 156.244 49.5371C 156.791 48.9121 157.22 48.209 157.533 47.4277C 157.845 46.627 158.002 45.8066 158.002 44.9668L 158.002 27.623L 166 27.623L 166 59L 164.066 59L 161.429 55.3379ZM 184.603 51.3242C 184.916 51.4219 185.228 51.4902 185.541 51.5293C 185.853 51.5488 186.166 51.5586 186.478 51.5586C 187.259 51.5586 188.011 51.4512 188.734 51.2363C 189.457 51.0215 190.13 50.7188 190.755 50.3281C 191.4 49.918 191.966 49.4297 192.455 48.8633C 192.962 48.2773 193.373 47.6328 193.685 46.9297L 199.545 52.8184C 198.802 53.873 197.943 54.8203 196.966 55.6602C 196.009 56.5 194.964 57.2129 193.832 57.7988C 192.718 58.3848 191.537 58.8242 190.287 59.1172C 189.056 59.4297 187.787 59.5859 186.478 59.5859C 184.271 59.5859 182.191 59.1758 180.238 58.3555C 178.304 57.5352 176.605 56.3926 175.14 54.9277C 173.695 53.4629 172.552 51.7246 171.712 49.7129C 170.873 47.6816 170.453 45.4551 170.453 43.0332C 170.453 40.5527 170.873 38.2871 171.712 36.2363C 172.552 34.1855 173.695 32.4375 175.14 30.9922C 176.605 29.5469 178.304 28.4238 180.238 27.623C 182.191 26.8223 184.271 26.4219 186.478 26.4219C 187.787 26.4219 189.066 26.5781 190.316 26.8906C 191.566 27.2031 192.748 27.6523 193.861 28.2383C 194.994 28.8242 196.048 29.5469 197.025 30.4062C 198.002 31.2461 198.861 32.1934 199.603 33.248L 184.603 51.3242ZM 188.705 34.8301C 188.334 34.6934 187.962 34.6055 187.591 34.5664C 187.24 34.5273 186.869 34.5078 186.478 34.5078C 185.384 34.5078 184.349 34.7129 183.373 35.123C 182.416 35.5137 181.576 36.0801 180.853 36.8223C 180.15 37.5645 179.593 38.4629 179.183 39.5176C 178.773 40.5527 178.568 41.7246 178.568 43.0332C 178.568 43.3262 178.578 43.6582 178.597 44.0293C 178.636 44.4004 178.685 44.7812 178.744 45.1719C 178.822 45.543 178.91 45.9043 179.007 46.2559C 179.105 46.6074 179.232 46.9199 179.388 47.1934L 188.705 34.8301Z"/>
</defs>
</svg>
