<svg width="198" height="57" viewBox="0 0 198 57" version="1.1" xmlns="http://www.w3.org/2000/svg" xmlns:xlink="http://www.w3.org/1999/xlink" xmlns:figma="http://www.figma.com/figma/ns">
<title>logo--text-only</title>
<desc>Created using Figma</desc>
<g id="Canvas" transform="translate(152 214)" figma:type="canvas">
<g id="logo--text-only" style="mix-blend-mode:normal;" figma:type="frame">
<mask id="mask0_alpha" mask-type="alpha">
<g id="Rectangle" style="mix-blend-mode:normal;" figma:type="rounded-rectangle">
<use xlink:href="#path0_fill" transform="translate(-161 -213.022)" fill="#444444" style="mix-blend-mode:normal;"/>
<mask id="mask1_outline_ins">
<use xlink:href="#path0_fill" fill="white" transform="translate(-161 -213.022)"/>
</mask>
<g mask="url(#mask1_outline_ins)">
<use xlink:href="#path1_stroke_2x" transform="translate(-161 -213.022)" fill="#FFFFFF" style="mix-blend-mode:normal;"/>
</g>
</g>
</mask>
<g id="i" style="mix-blend-mode:normal;" mask="url(#mask0_alpha)" figma:type="frame">
<mask id="mask2_alpha" mask-type="alpha">
<g id="Line" style="mix-blend-mode:normal;" figma:type="line">
<use xlink:href="#path2_stroke" transform="matrix(6.12323e-17 1 -1 6.12323e-17 -67 -201.022)" fill="#CCCCCC" style="mix-blend-mode:normal;"/>
</g>
</mask>
<g id="Line 2" style="mix-blend-mode:normal;" mask="url(#mask2_alpha)" figma:type="line">
<use xlink:href="#path3_stroke" transform="matrix(-0.354261 0.935147 -0.935147 -0.354261 -48.1265 -228.044)" fill="#CCCCCC" style="mix-blend-mode:normal;"/>
</g>
</g>
<g id="ob que" style="mix-blend-mode:normal;" mask="url(#mask0_alpha)" figma:type="text">
<use xlink:href="#path4_fill" transform="translate(-153 -228.022)" fill="#CCCCCC" style="mix-blend-mode:normal;"/>
</g>
<g id="Line 2" style="mix-blend-mode:normal;" mask="url(#mask0_alpha)" figma:type="line">
<use xlink:href="#path5_stroke" transform="matrix(-0.354261 0.935147 -0.935147 -0.354261 -61.1265 -227.044)" fill="#F5A503" style="mix-blend-mode:normal;"/>
</g>
</g>
</g>
<defs>
<path id="path0_fill" d="M 0 10C 0 4.47715 4.47715 0 10 0L 215 0C 220.523 0 225 4.47715 225 10L 225 46C 225 51.5228 220.523 56 215 56L 10 56C 4.47715 56 0 51.5228 0 46L 0 10Z"/>
<path id="path1_stroke_2x" d="M 10 6L 215 6L 215 -6L 10 -6L 10 6ZM 219 10L 219 46L 231 46L 231 10L 219 10ZM 215 50L 10 50L 10 62L 215 62L 215 50ZM 6 46L 6 10L -6 10L -6 46L 6 46ZM 10 -6C 1.16344 -6 -6 1.16344 -6 10L 6 10C 6 7.79086 7.79086 6 10 6L 10 -6ZM 215 6C 217.209 6 219 7.79086 219 10L 231 10C 231 1.16344 223.837 -6 215 -6L 215 6ZM 219 46C 219 48.2091 217.209 50 215 50L 215 62C 223.837 62 231 54.8366 231 46L 219 46ZM 10 50C 7.79086 50 6 48.2091 6 46L -6 46C -6 54.8366 1.16344 62 10 62L 10 50Z"/>
<path id="path2_stroke" d="M 0 0L 32 0L 32 -8L 0 -8L 0 0Z"/>
<path id="path3_stroke" d="M 0 0L 78.47 0L 78.47 -14L 0 -14L 0 0Z"/>
<path id="path4_fill" d="M 33.3691 43.0332C 33.3691 45.377 32.9492 47.5645 32.1094 49.5957C 31.2695 51.6074 30.127 53.3555 28.6816 54.8398C 27.2363 56.3047 25.5371 57.4668 23.584 58.3262C 21.6504 59.166 19.5703 59.5859 17.3438 59.5859C 15.1367 59.5859 13.0566 59.166 11.1035 58.3262C 9.16992 57.4668 7.4707 56.3047 6.00586 54.8398C 4.56055 53.3555 3.41797 51.6074 2.57812 49.5957C 1.73828 47.5645 1.31836 45.377 1.31836 43.0332C 1.31836 40.6504 1.73828 38.4434 2.57812 36.4121C 3.41797 34.3809 4.56055 32.6328 6.00586 31.168C 7.4707 29.6836 9.16992 28.5215 11.1035 27.6816C 13.0566 26.8418 15.1367 26.4219 17.3438 26.4219C 19.5703 26.4219 21.6504 26.8223 23.584 27.623C 25.5371 28.4043 27.2363 29.5273 28.6816 30.9922C 30.127 32.4375 31.2695 34.1855 32.1094 36.2363C 32.9492 38.2676 33.3691 40.5332 33.3691 43.0332ZM 25.3125 43.0332C 25.3125 41.7441 25.0977 40.582 24.668 39.5469C 24.2578 38.4922 23.6914 37.5937 22.9688 36.8516C 22.2461 36.0898 21.3965 35.5137 20.4199 35.123C 19.4629 34.7129 18.4375 34.5078 17.3438 34.5078C 16.25 34.5078 15.2148 34.7129 14.2383 35.123C 13.2813 35.5137 12.4414 36.0898 11.7188 36.8516C 11.0156 37.5937 10.459 38.4922 10.0488 39.5469C 9.63867 40.582 9.43359 41.7441 9.43359 43.0332C 9.43359 44.2441 9.63867 45.3672 10.0488 46.4023C 10.459 47.4375 11.0156 48.3359 11.7188 49.0977C 12.4414 49.8594 13.2813 50.4648 14.2383 50.9141C 15.2148 51.3437 16.25 51.5586 17.3438 51.5586C 18.4375 51.5586 19.4629 51.3535 20.4199 50.9434C 21.3965 50.5332 22.2461 49.957 22.9688 49.2148C 23.6914 48.4727 24.2578 47.5742 24.668 46.5195C 25.0977 45.4648 25.3125 44.3027 25.3125 43.0332ZM 69.1992 43.0332C 69.1992 45.4941 68.7793 47.7402 67.9395 49.7715C 67.0996 51.8027 65.957 53.5508 64.5117 55.0156C 63.0664 56.4609 61.3672 57.584 59.4141 58.3848C 57.4805 59.1855 55.4004 59.5859 53.1738 59.5859C 50.9668 59.5859 48.8867 59.1758 46.9336 58.3555C 45 57.5352 43.3008 56.3926 41.8359 54.9277C 40.3906 53.4629 39.248 51.7246 38.4082 49.7129C 37.5684 47.6816 37.1484 45.4551 37.1484 43.0332L 37.1484 15.1426L 45.1758 15.1426L 45.1758 29.791C 45.6055 29.2441 46.123 28.7559 46.7285 28.3262C 47.3535 27.8965 48.0176 27.5449 48.7207 27.2715C 49.4434 26.998 50.1855 26.793 50.9473 26.6562C 51.709 26.5 52.4512 26.4219 53.1738 26.4219C 55.4004 26.4219 57.4805 26.8418 59.4141 27.6816C 61.3672 28.502 63.0664 29.6543 64.5117 31.1387C 65.957 32.623 67.0996 34.3809 67.9395 36.4121C 68.7793 38.4238 69.1992 40.6309 69.1992 43.0332ZM 61.1426 43.0332C 61.1426 41.8223 60.9277 40.6992 60.498 39.6641C 60.0879 38.6094 59.5215 37.7012 58.7988 36.9395C 58.0762 36.1777 57.2266 35.582 56.25 35.1523C 55.293 34.7227 54.2676 34.5078 53.1738 34.5078C 52.0801 34.5078 51.0449 34.752 50.0684 35.2402C 49.1113 35.709 48.2715 36.3438 47.5488 37.1445C 46.8262 37.9258 46.2598 38.834 45.8496 39.8691C 45.4395 40.8848 45.2344 41.9395 45.2344 43.0332C 45.2344 44.2441 45.4395 45.3672 45.8496 46.4023C 46.2598 47.4375 46.8262 48.3359 47.5488 49.0977C 48.2715 49.8594 49.1113 50.4648 50.0684 50.9141C 51.0449 51.3437 52.0801 51.5586 53.1738 51.5586C 54.2676 51.5586 55.293 51.3437 56.25 50.9141C 57.2266 50.4648 58.0762 49.8594 58.7988 49.0977C 59.5215 48.3359 60.0879 47.4375 60.498 46.4023C 60.9277 45.3672 61.1426 44.2441 61.1426 43.0332ZM 131.05 70.9531L 122.993 70.9531L 122.993 56.8906C 122.387 57.2422 121.762 57.584 121.118 57.916C 120.493 58.248 119.839 58.5508 119.155 58.8242C 118.491 59.0781 117.807 59.2832 117.104 59.4395C 116.421 59.5957 115.727 59.6738 115.024 59.6738C 112.817 59.6738 110.737 59.2734 108.784 58.4727C 106.85 57.6523 105.151 56.5098 103.686 55.0449C 102.241 53.5801 101.098 51.832 100.259 49.8008C 99.4187 47.75 98.9988 45.4941 98.9988 43.0332C 98.9988 40.5527 99.4187 38.2969 100.259 36.2656C 101.098 34.2148 102.241 32.4668 103.686 31.0215C 105.151 29.5762 106.85 28.4629 108.784 27.6816C 110.737 26.8809 112.817 26.4805 115.024 26.4805C 116.04 26.4805 117.036 26.6074 118.012 26.8613C 119.009 27.1152 119.975 27.4668 120.913 27.916C 121.85 28.3457 122.739 28.8633 123.579 29.4688C 124.438 30.0742 125.249 30.7188 126.011 31.4023L 129.116 27.6816L 131.05 27.6816L 131.05 70.9531ZM 122.993 43.0332C 122.993 41.9395 122.778 40.8848 122.348 39.8691C 121.938 38.834 121.372 37.9258 120.649 37.1445C 119.927 36.3438 119.077 35.709 118.1 35.2402C 117.143 34.752 116.118 34.5078 115.024 34.5078C 113.93 34.5078 112.895 34.7129 111.919 35.123C 110.962 35.5137 110.122 36.0801 109.399 36.8223C 108.696 37.5645 108.139 38.4629 107.729 39.5176C 107.319 40.5527 107.114 41.7246 107.114 43.0332C 107.114 44.3809 107.319 45.5918 107.729 46.666C 108.139 47.7207 108.696 48.6094 109.399 49.332C 110.122 50.0547 110.962 50.6113 111.919 51.002C 112.895 51.373 113.93 51.5586 115.024 51.5586C 116.118 51.5586 117.143 51.3242 118.1 50.8555C 119.077 50.3672 119.927 49.7324 120.649 48.9512C 121.372 48.1504 121.938 47.2422 122.348 46.2266C 122.778 45.1914 122.993 44.127 122.993 43.0332ZM 160.229 55.3379C 159.585 55.9238 158.891 56.4805 158.149 57.0078C 157.427 57.5156 156.665 57.9648 155.864 58.3555C 155.063 58.7266 154.233 59.0195 153.374 59.2344C 152.534 59.4688 151.675 59.5859 150.796 59.5859C 148.862 59.5859 147.046 59.2441 145.346 58.5605C 143.647 57.877 142.153 56.9102 140.864 55.6602C 139.595 54.3906 138.589 52.8574 137.846 51.0605C 137.124 49.2441 136.762 47.2129 136.762 44.9668L 136.762 27.623L 144.731 27.623L 144.731 44.9668C 144.731 46.0215 144.887 46.9688 145.2 47.8086C 145.532 48.6289 145.971 49.3223 146.518 49.8887C 147.065 50.4551 147.7 50.8848 148.423 51.1777C 149.165 51.4707 149.956 51.6172 150.796 51.6172C 151.616 51.6172 152.387 51.4316 153.11 51.0605C 153.852 50.6699 154.497 50.1621 155.044 49.5371C 155.591 48.9121 156.02 48.209 156.333 47.4277C 156.645 46.627 156.802 45.8066 156.802 44.9668L 156.802 27.623L 164.8 27.623L 164.8 59L 162.866 59L 160.229 55.3379ZM 183.403 51.3242C 183.716 51.4219 184.028 51.4902 184.341 51.5293C 184.653 51.5488 184.966 51.5586 185.278 51.5586C 186.059 51.5586 186.811 51.4512 187.534 51.2363C 188.257 51.0215 188.93 50.7188 189.555 50.3281C 190.2 49.918 190.766 49.4297 191.255 48.8633C 191.762 48.2773 192.173 47.6328 192.485 46.9297L 198.345 52.8184C 197.602 53.873 196.743 54.8203 195.766 55.6602C 194.809 56.5 193.764 57.2129 192.632 57.7988C 191.518 58.3848 190.337 58.8242 189.087 59.1172C 187.856 59.4297 186.587 59.5859 185.278 59.5859C 183.071 59.5859 180.991 59.1758 179.038 58.3555C 177.104 57.5352 175.405 56.3926 173.94 54.9277C 172.495 53.4629 171.352 51.7246 170.512 49.7129C 169.673 47.6816 169.253 45.4551 169.253 43.0332C 169.253 40.5527 169.673 38.2871 170.512 36.2363C 171.352 34.1855 172.495 32.4375 173.94 30.9922C 175.405 29.5469 177.104 28.4238 179.038 27.623C 180.991 26.8223 183.071 26.4219 185.278 26.4219C 186.587 26.4219 187.866 26.5781 189.116 26.8906C 190.366 27.2031 191.548 27.6523 192.661 28.2383C 193.794 28.8242 194.848 29.5469 195.825 30.4062C 196.802 31.2461 197.661 32.1934 198.403 33.248L 183.403 51.3242ZM 187.505 34.8301C 187.134 34.6934 186.762 34.6055 186.391 34.5664C 186.04 34.5273 185.669 34.5078 185.278 34.5078C 184.184 34.5078 183.149 34.7129 182.173 35.123C 181.216 35.5137 180.376 36.0801 179.653 36.8223C 178.95 37.5645 178.393 38.4629 177.983 39.5176C 177.573 40.5527 177.368 41.7246 177.368 43.0332C 177.368 43.3262 177.378 43.6582 177.397 44.0293C 177.436 44.4004 177.485 44.7812 177.544 45.1719C 177.622 45.543 177.71 45.9043 177.807 46.2559C 177.905 46.6074 178.032 46.9199 178.188 47.1934L 187.505 34.8301Z"/>
<path id="path5_stroke" d="M 0 0L 78.47 0L 78.47 -8L 0 -8L 0 0Z"/>
</defs>
</svg>
